<svg id="Layer_1" enable-background="new 0 0 512 512" height="512" viewBox="0 0 512 512" width="512" xmlns="http://www.w3.org/2000/svg"><g><path d="m374 292v-16h-236v16h-32v6c0 43.354 18.495 82.463 48 109.873v104.127h204v-104.127c29.505-27.41 48-66.52 48-109.873v-6zm-224-4h212v20h-212zm196 114.521c-24.181 20.851-55.641 33.479-90 33.479s-65.819-12.628-90-33.479v-82.521h52v50c0 12.131 9.869 22 22 22s22-9.869 22-22v-16c0-5.514 4.486-10 10-10s10 4.486 10 10v32c0 12.131 9.869 22 22 22s22-9.869 22-22v-66h20zm-74-70.521c-12.131 0-22 9.869-22 22v16c0 5.514-4.486 10-10 10s-10-4.486-10-10v-50h84v66c0 5.514-4.486 10-10 10s-10-4.486-10-10v-32c0-12.131-9.869-22-22-22zm-153.871-28h19.871v16h16v70.85c-21.094-23.152-34.436-53.484-35.871-86.85zm227.871 196h-180v-82.076c25.087 18.875 56.259 30.076 90 30.076s64.913-11.201 90-30.076zm12-109.15v-70.85h16v-16h19.871c-1.435 33.366-14.777 63.698-35.871 86.85z"/><path d="m186 262h140v-90h16v-44h-61.519l9.948-89.533c1.087-9.78-2.054-19.596-8.617-26.928-6.562-7.333-15.971-11.539-25.812-11.539s-19.25 4.206-25.813 11.539-9.704 17.148-8.617 26.928l9.949 89.533h-61.519v44h16zm128-12h-20v-58h-12v58h-20v-58h-12v58h-20v-58h-12v58h-20v-78h116zm-132-110h62.926l-11.429-102.858c-.71-6.393 1.342-12.808 5.632-17.6s10.439-7.542 16.871-7.542 12.582 2.749 16.871 7.542 6.342 11.208 5.632 17.6l-11.429 102.858h62.926v20h-148z"/><circle cx="256" cy="38" r="8"/></g></svg>